<?xml version="1.0" standalone="no"?>
<!DOCTYPE svg PUBLIC "-//W3C//DTD SVG 20010904//EN"
 "http://www.w3.org/TR/2001/REC-SVG-20010904/DTD/svg10.dtd">
<svg version="1.0" xmlns="http://www.w3.org/2000/svg"
 width="459.000000pt" height="459.000000pt" viewBox="0 0 459.000000 459.000000"
 preserveAspectRatio="xMidYMid meet">
<metadata>
Created by potrace 1.14, written by Peter Selinger 2001-2017
</metadata>
<g transform="translate(0.000000,459.000000) scale(0.100000,-0.100000)"
fill="#000000" stroke="none">
<path d="M18 4522 c4 -96 5 -102 15 -102 5 0 4 -7 -3 -15 -9 -11 -9 -15 -1
-15 7 0 10 -4 6 -9 -3 -5 0 -13 6 -16 5 -4 8 -13 5 -20 -2 -7 -2 -16 2 -19 3
-4 7 -15 9 -25 1 -10 7 -31 13 -47 6 -16 11 -31 12 -34 0 -3 4 -11 10 -17 6
-7 7 -13 4 -13 -4 0 0 -7 8 -16 9 -8 14 -20 11 -25 -4 -5 -2 -9 2 -9 5 0 20
-22 34 -49 13 -27 27 -47 31 -44 5 2 8 -1 8 -6 0 -6 0 -13 0 -16 0 -3 18 -24
39 -47 22 -23 38 -45 35 -50 -3 -4 0 -8 5 -8 12 0 38 -20 92 -72 21 -21 45
-38 54 -38 8 0 15 -5 15 -10 0 -6 8 -13 18 -17 9 -3 31 -16 48 -29 17 -13 35
-20 38 -16 4 3 10 2 14 -4 4 -6 32 -20 62 -32 53 -21 75 -28 130 -39 14 -2 32
-7 40 -10 35 -12 154 -15 910 -18 437 -1 813 -6 835 -10 57 -10 152 -44 205
-73 68 -37 176 -121 190 -148 7 -13 17 -21 22 -18 4 3 8 0 8 -6 0 -6 11 -23
25 -38 39 -42 103 -179 123 -267 25 -104 20 -334 -7 -355 -3 -3 -7 -13 -9 -24
-2 -10 -8 -30 -13 -45 -6 -14 -11 -28 -11 -31 -1 -3 -12 -22 -24 -42 -13 -21
-24 -40 -24 -43 0 -5 -25 -36 -47 -60 -7 -8 -13 -16 -13 -20 0 -4 -18 -24 -40
-46 -22 -22 -40 -37 -40 -33 0 4 -8 -2 -17 -13 -42 -46 -212 -141 -227 -126
-3 4 -6 2 -6 -4 0 -10 -73 -29 -142 -37 -21 -2 -42 -7 -47 -10 -5 -4 -12 -2
-16 4 -4 7 -12 7 -25 0 -13 -7 -21 -7 -25 0 -4 6 -11 7 -18 3 -16 -10 -57 -10
-57 0 0 4 -8 4 -17 0 -22 -11 -74 -10 -90 0 -7 5 -13 4 -13 -1 0 -10 -30 -9
-48 2 -6 4 -12 3 -12 -2 0 -10 -30 -9 -48 2 -6 4 -12 3 -12 -1 0 -9 -77 -9
-86 0 -3 2 -21 1 -40 -3 -19 -5 -37 -4 -40 1 -3 5 -10 6 -17 2 -16 -10 -57
-10 -57 0 0 4 -8 4 -17 0 -22 -11 -74 -10 -90 0 -7 5 -13 4 -13 -1 0 -10 -30
-9 -48 2 -6 4 -12 4 -12 -1 0 -4 -16 -8 -35 -8 -19 0 -35 4 -35 8 0 5 -6 5
-12 1 -18 -11 -48 -12 -48 -2 0 5 -5 6 -12 2 -14 -9 -71 -10 -85 -1 -6 4 -13
4 -17 0 -9 -10 -56 -10 -56 0 0 4 -8 4 -17 0 -22 -11 -74 -10 -90 0 -7 5 -13
4 -13 -1 0 -10 -30 -9 -47 1 -6 4 -14 3 -17 -2 -7 -10 -25 -9 -43 2 -6 4 -14
3 -18 -3 -4 -6 -10 -8 -15 -5 -5 3 -11 1 -14 -4 -3 -5 8 -21 25 -35 18 -15 27
-31 23 -37 -4 -7 -3 -9 3 -6 13 8 46 -27 36 -38 -5 -4 -3 -5 4 -1 12 6 143
-118 143 -136 0 -5 5 -6 12 -2 8 5 9 2 5 -10 -4 -9 -3 -15 2 -11 11 6 112 -91
103 -99 -3 -3 1 -6 8 -6 17 0 60 -51 53 -63 -3 -6 -1 -7 5 -3 12 7 84 -59 74
-69 -3 -3 0 -5 6 -5 13 0 72 -58 72 -71 0 -5 5 -9 11 -9 12 0 24 -12 57 -54
12 -16 22 -26 22 -22 0 4 11 -4 25 -18 14 -14 25 -30 25 -36 0 -6 5 -8 12 -4
8 5 9 2 5 -10 -4 -10 -3 -15 3 -11 10 6 80 -60 80 -76 0 -5 4 -9 10 -9 17 0
81 -71 74 -82 -4 -6 -3 -8 4 -4 11 6 172 -149 172 -166 0 -5 3 -8 8 -6 4 2 25
-15 47 -36 22 -22 34 -36 26 -31 -10 5 -12 4 -7 -3 4 -7 14 -12 22 -12 8 0 13
-4 10 -8 -2 -4 9 -17 25 -27 16 -11 29 -26 29 -33 0 -7 4 -11 8 -8 5 3 15 -6
22 -19 7 -14 17 -25 22 -25 4 0 27 -19 51 -42 24 -24 70 -65 101 -92 50 -43
71 -60 124 -101 7 -5 21 -17 31 -25 10 -8 25 -19 34 -25 9 -5 57 -38 107 -72
50 -35 95 -63 101 -63 5 0 9 -3 9 -8 0 -4 15 -13 33 -21 17 -8 34 -17 37 -21
3 -4 34 -22 70 -41 36 -18 68 -37 71 -42 3 -4 16 -9 27 -10 12 -1 22 -5 22 -9
0 -4 7 -8 15 -8 8 0 15 -5 15 -10 0 -6 6 -10 13 -8 6 1 31 -8 54 -20 23 -12
49 -22 58 -22 8 0 15 -4 15 -10 0 -5 7 -10 15 -10 8 0 34 -9 58 -19 34 -16
100 -40 127 -46 3 -1 18 -7 33 -13 16 -7 34 -12 42 -12 8 0 17 -5 20 -10 4 -6
11 -8 16 -4 5 3 16 0 24 -6 8 -6 19 -9 24 -6 5 4 12 2 16 -4 3 -5 16 -10 29
-10 12 0 26 -3 30 -7 3 -4 17 -8 29 -10 12 -2 39 -8 60 -14 20 -5 42 -7 47 -4
6 3 10 1 10 -5 0 -7 6 -10 14 -7 8 3 17 3 20 -1 4 -3 14 -7 24 -8 52 -7 111
-16 137 -23 17 -5 131 -9 253 -10 l223 -2 -711 711 -711 711 81 50 c45 27 83
49 86 49 2 0 12 7 21 15 10 8 21 15 25 15 4 1 20 13 37 28 67 62 101 91 101
87 0 -7 143 140 170 175 14 18 39 47 55 65 17 18 31 38 33 45 1 6 11 21 22 32
11 12 17 25 14 30 -3 4 0 8 5 8 6 0 17 15 26 33 18 40 37 70 50 79 6 4 6 8 1
8 -5 0 -3 7 4 15 7 8 9 15 4 15 -5 0 -4 4 2 8 10 7 54 95 54 109 0 5 7 21 15
37 9 16 17 37 18 45 2 9 9 27 16 40 9 17 10 21 1 16 -9 -5 -8 -1 1 16 7 13 14
26 14 29 1 3 5 23 10 45 5 22 10 45 10 50 1 6 5 26 8 45 14 73 17 97 24 175
11 143 3 305 -22 425 -3 14 -8 43 -11 65 -3 22 -10 48 -16 58 -5 10 -7 21 -4
24 3 3 -1 18 -9 33 -8 15 -16 38 -19 51 -13 73 -144 344 -188 391 -10 10 -18
22 -18 27 0 6 -11 22 -25 37 -14 15 -25 33 -25 41 0 8 -5 11 -10 8 -6 -3 -10
-2 -10 3 0 5 -16 26 -35 47 -19 21 -32 42 -29 47 3 4 1 8 -5 8 -5 0 -36 26
-69 58 -75 72 -130 120 -153 132 -9 6 -24 16 -32 24 -7 8 -38 29 -68 47 -30
18 -56 36 -59 40 -6 7 -80 46 -95 49 -5 1 -22 11 -37 21 -14 10 -28 19 -31 19
-3 0 -18 5 -34 12 -15 6 -30 12 -33 12 -3 1 -9 4 -15 7 -8 5 -75 29 -95 34 -3
1 -12 4 -20 8 -53 21 -289 68 -302 60 -5 -2 -8 0 -8 5 0 6 -503 10 -1288 10
l-1287 0 3 -66z"/>
</g>
</svg>
